<?xml version="1.0" encoding="UTF-8"?>
<svg version="1.1" xmlns="http://www.w3.org/2000/svg" width="512" height="512">
<path d="M0 0 C168.96 0 337.92 0 512 0 C512 168.96 512 337.92 512 512 C343.04 512 174.08 512 0 512 C0 343.04 0 174.08 0 0 Z " fill="#010002" transform="translate(0,0)"/>
<path d="M0 0 C129.36 0 258.72 0 392 0 C392 149.70329087 392 149.70329087 382.91015625 160.10546875 C374.42955094 168.51670306 365.48113907 172.43332923 353.49790955 172.50559998 C352.31677078 172.49271439 351.13563202 172.4798288 349.91870117 172.46655273 C347.9676232 172.47009253 346.01654523 172.47363529 344.06546748 172.47729027 C341.98850131 172.47740358 339.91178658 172.46774967 337.83485985 172.45528984 C333.4933303 172.43000925 329.15219077 172.43649733 324.81062317 172.44776917 C314.03605693 172.47088217 303.26160793 172.45250268 292.48706055 172.42626953 C284.09362116 172.40631674 275.70049603 172.39773819 267.30705625 172.42320591 C262.9928593 172.43500655 258.67956036 172.42340689 254.36545694 172.3939532 C251.05499287 172.37757701 247.74481059 172.39340962 244.43432617 172.40405273 C242.64743629 172.381688 242.64743629 172.381688 240.82444763 172.35887146 C234.36800518 172.36608019 234.36800518 172.36608019 228.76191711 175.29115295 C226.87068264 178.19881806 226.40711987 180.3732623 226.3359375 183.83984375 C227.1413698 186.95488916 227.1413698 186.95488916 232 192 C207.91 192 183.82 192 159 192 C160.65 190.35 162.3 188.7 164 187 C165.10440345 184.31278792 165.31491092 181.88668341 165 179 C163.23535939 176.14006522 162.00434303 174.50217151 159 173 C157.33745915 172.89950412 155.67093195 172.86220583 154.00537109 172.85523987 C152.9484758 172.84834137 151.89158051 172.84144287 150.80265808 172.83433533 C149.63801529 172.83172195 148.4733725 172.82910858 147.2734375 172.82641602 C146.05050491 172.819729 144.82757233 172.81304199 143.56758118 172.80615234 C140.90314384 172.79207167 138.23876167 172.77974918 135.5743103 172.77020454 C131.35394185 172.75474816 127.13364832 172.73079502 122.91333008 172.70530701 C110.91053006 172.63412801 98.90768595 172.5744988 86.90478516 172.52319336 C80.27871644 172.49479527 73.65272114 172.45935667 67.02672958 172.41653961 C62.83969655 172.38990421 58.65274658 172.37191437 54.46564579 172.36050236 C51.23095436 172.34914785 47.9963521 172.32504741 44.76171875 172.30297852 C43.61326981 172.30238937 42.46482086 172.30180023 41.28157043 172.30119324 C28.45202821 172.18568888 19.93647699 170.14824097 10.25 161.5625 C-25.54539032 120.79552769 0 29.45294957 0 0 Z " fill="#9D40F4" transform="translate(69,320)"/>
<path d="M0 0 C126.72 0 253.44 0 384 0 C381.30759665 2.69240335 379.09067335 2.83743394 375.375 3.6875 C368.28730006 5.36977219 361.29925255 7.31477505 354.3125 9.375 C353.28560059 9.67752686 352.25870117 9.98005371 351.20068359 10.29174805 C349.1293218 10.9022598 347.05803216 11.51301642 344.98681641 12.12402344 C340.49813561 13.44046832 335.99959665 14.72146131 331.5 16 C319.9839917 19.27857498 308.4920354 22.63853382 297 26 C285.50795478 29.36146905 274.01572421 32.72040565 262.5 36 C247.08615165 40.3930858 231.69421797 44.84899455 216.375 49.5625 C208.0690058 52.11422678 199.72773412 54.47648188 191.3371582 56.73291016 C177.63136226 60.42860845 164.01613081 64.44324709 150.45214844 68.62792969 C140.06982403 71.83049124 129.64513401 74.77982286 119.12939453 77.515625 C112.97075441 79.13318377 106.95344056 80.98574166 100.92651367 83.03833008 C96.3337603 84.54753635 91.67376802 85.77025891 87 87 C67.24217571 92.32690519 49.55612317 97.73638154 38.5 116.265625 C29.44831366 132.76609488 29.21896805 148.58737657 34.25488281 166.45019531 C36.0456924 172.57837859 37.90666716 178.68509785 39.83007812 184.77294922 C40.48816023 186.85698578 41.13455895 188.94474254 41.77007675 191.03577042 C42.6287095 193.84822152 43.55330116 196.63151934 44.50082779 199.41515732 C49.07791373 213.39815455 49.84588524 226.28711705 49.74121094 240.91503906 C49.74612012 243.33700714 49.75369091 245.75897104 49.76368713 248.18092346 C49.78137875 254.01863645 49.77229456 259.85584631 49.75120154 265.69353721 C49.72830747 272.50851631 49.74147885 279.32329331 49.75693431 286.13827619 C49.78375775 298.29876809 49.78566442 310.45912202 49.77001953 322.61962891 C49.7549519 334.39470569 49.74684351 346.16973727 49.75146484 357.94482422 C49.75174469 358.6720063 49.75202454 359.39918839 49.75231287 360.1484063 C49.75564202 368.0940977 49.76176357 376.0397833 49.77118301 383.98546982 C49.77200605 384.6842923 49.77282909 385.38311478 49.77367707 386.1031137 C49.77700498 388.89699473 49.78036283 391.69087565 49.78407648 394.4847562 C49.79572147 403.30234191 49.79471807 412.11978239 49.78013659 420.9373641 C49.77332036 425.986594 49.77435945 431.03580254 49.77714348 436.08503532 C49.77663267 438.42270944 49.77266722 440.76038578 49.76496315 443.09804726 C49.75481203 446.29275323 49.75692879 449.48723273 49.76190186 452.6819458 C49.75286068 454.06273201 49.75286068 454.06273201 49.74363685 455.4714129 C49.81207022 471.19925126 55.86693697 485.38952686 66.71875 496.80859375 C75.25567733 504.56028484 85.57392646 509.53511878 97 511 C97 511.33 97 511.66 97 512 C64.99 512 32.98 512 0 512 C0 343.04 0 174.08 0 0 Z " fill="#8266FB" transform="translate(0,0)"/>
<path d="M0 0 C36.96 0 73.92 0 112 0 C112 168.96 112 337.92 112 512 C85.93 512 59.86 512 33 512 C36.28807966 510.35596017 39.07636513 509.3383799 42.5625 508.3125 C56.32760216 503.75762435 66.80094314 495.0562888 73.375 482.1875 C73.69686279 481.56045166 74.01872559 480.93340332 74.3503418 480.28735352 C80.89639599 466.587558 80.43003241 452.90036581 80.38818359 438.04321289 C80.3922531 435.61608647 80.3975971 433.1889619 80.40411377 430.76184082 C80.41633102 424.87825369 80.41460231 418.99477215 80.40587585 413.11118806 C80.39907956 408.32985247 80.39819094 403.54854905 80.4014473 398.76721001 C80.401907 398.08476527 80.40236669 397.40232054 80.40284032 396.69919566 C80.40379955 395.31258372 80.40477219 393.92597179 80.4057581 392.53935986 C80.41429257 379.56811776 80.40450611 366.59693949 80.388357 353.62570786 C80.37493441 342.49970765 80.3773016 331.37380128 80.39111328 320.24780273 C80.40716708 307.30969892 80.41349098 294.37165076 80.40427649 281.43353838 C80.40332088 280.05438547 80.40237776 278.67523256 80.4014473 277.29607964 C80.40075306 276.2783419 80.40075306 276.2783419 80.40004479 275.24004381 C80.39745587 270.46176894 80.40182332 265.68352947 80.40888596 260.90526009 C80.41817614 254.47918098 80.41156554 248.05323768 80.39420319 241.62717438 C80.39023018 239.26687096 80.39138623 236.90655263 80.39799118 234.54625511 C80.40616368 231.32983283 80.39593694 228.11398382 80.38095093 224.89759827 C80.38764309 223.95928368 80.39433526 223.0209691 80.40123022 222.05422074 C80.34582912 215.94312613 79.43941587 212.43941587 75 208 C72.42562493 207.69160493 72.42562493 207.69160493 69.36591148 207.73828697 C68.16015791 207.73082148 66.95440434 207.72335599 65.71211278 207.71566427 C64.36206054 207.71744133 63.01200853 207.71940227 61.66195679 207.7215271 C60.23717131 207.7165284 58.81238867 207.71065386 57.38761008 207.70397437 C53.45857142 207.68810875 49.52960413 207.6847401 45.6005373 207.68332577 C41.36874652 207.67964311 37.13699542 207.66449339 32.90522766 207.65071106 C25.5688048 207.6283986 18.23239599 207.61340934 10.8959465 207.60334396 C0.28857665 207.58878048 -10.31874429 207.5632503 -20.92608552 207.53501268 C-38.1343045 207.48950219 -55.34253051 207.45290502 -72.55078125 207.421875 C-89.27052037 207.39170686 -105.99024228 207.35736461 -122.70996094 207.31738281 C-123.73994896 207.31492126 -124.76993699 207.31245972 -125.83113678 207.30992357 C-130.99810026 207.29754931 -136.16506354 207.28509271 -141.33202672 207.27259517 C-184.22132718 207.16896367 -227.110649 207.07978148 -270 207 C-267.21432876 205.14288584 -265.3560157 204.38743306 -262.1953125 203.484375 C-260.74801758 203.06671875 -260.74801758 203.06671875 -259.27148438 202.640625 C-258.23314453 202.34671875 -257.19480469 202.0528125 -256.125 201.75 C-255.04798828 201.440625 -253.97097656 201.13125 -252.86132812 200.8125 C-249.57565852 199.86987404 -246.2880521 198.93427695 -243 198 C-241.19521745 197.48470781 -239.39052329 196.96910586 -237.5859375 196.453125 C-235.03467929 195.72395062 -232.48329493 194.99524141 -229.93139648 194.26831055 C-219.27274052 191.22998793 -208.63766305 188.11084036 -198 185 C-174.5663062 178.1512047 -174.5663062 178.1512047 -163.8125 175.09375 C-158.53650318 173.58014435 -153.26853704 172.03934028 -148 170.5 C-141.6710936 168.6508452 -135.34219883 166.80317418 -129 165 C-122.80368214 163.23822797 -116.62056323 161.43259565 -110.4375 159.625 C-102.79850373 157.3922088 -95.1545827 155.17875847 -87.5 153 C-75.98414586 149.72084632 -64.49225426 146.36075397 -53 143 C-29.57766213 136.15452362 -29.57766213 136.15452362 -18.78515625 133.0859375 C-13.66406078 131.61672745 -8.55114902 130.11988846 -3.4375 128.625 C4.11926595 126.41713559 11.67967951 124.22344207 19.25 122.0625 C20.07371094 121.82635986 20.89742188 121.59021973 21.74609375 121.34692383 C26.95532986 119.85666793 32.17223276 118.39698011 37.39453125 116.953125 C38.66458008 116.59855225 39.93462891 116.24397949 41.24316406 115.87866211 C43.747062 115.17970262 46.25287491 114.4875594 48.76074219 113.80297852 C49.90317383 113.48256592 51.04560547 113.16215332 52.22265625 112.83203125 C53.24109619 112.55077393 54.25953613 112.2695166 55.30883789 111.97973633 C58.05024829 110.98170676 59.8629053 109.97579297 62 108 C64.37103462 100.88689615 62.61526563 94.67537255 60.375 87.8125 C59.81882551 86.03952828 59.26418655 84.26607427 58.7109375 82.4921875 C58.28312988 81.1323877 58.28312988 81.1323877 57.84667969 79.74511719 C56.48537465 75.33147421 55.24809791 70.8841847 54 66.4375 C53.00766634 62.9561031 52.0060751 59.47744883 51 56 C50.63672607 54.73978027 50.63672607 54.73978027 50.26611328 53.45410156 C44.77516549 34.60808303 38.54978138 18.26455362 20.7265625 8.140625 C14.03815784 4.56509163 7.61414076 1.85966105 0 1 C0 0.67 0 0.34 0 0 Z " fill="#9250F6" transform="translate(400,0)"/>
<path d="M0 0 C5.33882157 0.38551425 9.29305177 2.58005619 13.81640625 5.2890625 C14.67218262 5.78051758 15.52795898 6.27197266 16.40966797 6.77832031 C19.20232777 8.38833062 21.97801153 10.02534453 24.75390625 11.6640625 C26.66056156 12.7723775 28.5681247 13.87913214 30.4765625 14.984375 C34.47750935 17.30603147 38.47149495 19.6391019 42.4609375 21.98046875 C48.97818158 25.8020506 55.52058316 29.57920614 62.06640625 33.3515625 C63.14897705 33.97764404 64.23154785 34.60372559 65.34692383 35.2487793 C70.36083746 38.14640846 75.38290614 41.02457888 80.44140625 43.84375 C81.31240967 44.33399658 82.18341309 44.82424316 83.08081055 45.3293457 C84.67567639 46.22586051 86.27571874 47.11326307 87.88208008 47.98901367 C92.56716147 50.63682446 95.65085262 53.23455848 98.75390625 57.6640625 C99.52238963 62.37102323 98.4620364 64.84312897 95.75390625 68.6640625 C93.43920898 70.37060547 93.43920898 70.37060547 90.6875 71.90625 C89.14352539 72.78120117 89.14352539 72.78120117 87.56835938 73.67382812 C86.45396484 74.28935547 85.33957031 74.90488281 84.19140625 75.5390625 C83.01943904 76.19855071 81.84822705 76.85938262 80.67773438 77.52148438 C78.24621889 78.89552293 75.81156039 80.26373085 73.37451172 81.62792969 C67.80338167 84.75281283 62.28134688 87.96276545 56.75390625 91.1640625 C54.60308997 92.40533854 52.45204709 93.64622201 50.30078125 94.88671875 C44.66297913 98.13923162 39.0259709 101.3931172 33.38964844 104.64819336 C31.16215075 105.93332524 28.93366115 107.21673964 26.70410156 108.49829102 C22.18984534 111.09381445 17.68143649 113.69287195 13.22265625 116.3828125 C12.57780273 116.76703369 11.93294922 117.15125488 11.26855469 117.54711914 C9.66954111 118.50258948 8.07842845 119.47125168 6.48828125 120.44140625 C3.29548397 121.86904275 1.21576087 122.07720564 -2.24609375 121.6640625 C-5.23433426 120.02272285 -7.70792793 117.74039414 -9.24609375 114.6640625 C-9.3484016 113.23338753 -9.38983581 111.79812293 -9.3999939 110.36383057 C-9.40859436 109.46102356 -9.41719482 108.55821655 -9.42605591 107.62805176 C-9.43031586 106.63478882 -9.43457581 105.64152588 -9.43896484 104.61816406 C-9.44714233 103.57412415 -9.45531982 102.53008423 -9.46374512 101.45440674 C-9.48862524 97.98783955 -9.50512197 94.52131338 -9.51953125 91.0546875 C-9.52485493 89.87249382 -9.5301786 88.69030014 -9.5356636 87.47228241 C-9.56240669 81.21492663 -9.58177783 74.95759089 -9.59619141 68.70019531 C-9.61284104 62.23242311 -9.6576189 55.76516028 -9.70856285 49.29758072 C-9.7421976 44.32874965 -9.75376478 39.36004001 -9.75941849 34.39110565 C-9.76614145 32.00685484 -9.78139042 29.6226123 -9.8053093 27.23847198 C-9.83688092 23.90107065 -9.83700895 20.56505015 -9.82958984 17.22753906 C-9.84599518 16.24237305 -9.86240051 15.25720703 -9.87930298 14.2421875 C-9.83846679 9.75485345 -9.71321055 6.63415248 -6.84327698 3.05062866 C-3.37617267 -0.13531284 -3.37617267 -0.13531284 0 0 Z " fill="#010002" transform="translate(235.24609375,344.3359375)"/>
<path d="M0 0 C10.57223667 8.22285074 14.75525891 17.75731342 18.25 30.5 C18.54148926 31.53237793 18.83297852 32.56475586 19.13330078 33.62841797 C19.73469999 35.75952671 20.33235605 37.89169531 20.92626953 40.02490234 C21.78551244 43.09119234 22.6672164 46.14994454 23.55859375 49.20703125 C24.10157151 51.07551822 24.64454066 52.94400768 25.1875 54.8125 C25.43814209 55.67012939 25.68878418 56.52775879 25.94702148 57.41137695 C27.16683362 61.65503246 28.20233993 65.80286132 28.8125 70.1875 C27.99652344 70.39503906 27.18054688 70.60257812 26.33984375 70.81640625 C16.974054 73.25212306 7.7288614 76.00084721 -1.50415039 78.90063477 C-2.45668701 79.19639404 -3.40922363 79.49215332 -4.390625 79.796875 C-5.24301758 80.06467773 -6.09541016 80.33248047 -6.97363281 80.60839844 C-9.1875 81.1875 -9.1875 81.1875 -12.1875 81.1875 C-14.5612793 79.00341797 -14.5612793 79.00341797 -17.1875 76.1875 C-17.99936768 75.37039551 -18.81123535 74.55329102 -19.64770508 73.71142578 C-20.49228271 72.8604834 -21.33686035 72.00954102 -22.20703125 71.1328125 C-23.64584458 69.68661726 -25.08514481 68.24090855 -26.5246582 66.79541016 C-27.50375767 65.811288 -28.48195695 64.82626938 -29.45922852 63.84033203 C-34.5714299 58.68420103 -39.71842478 53.64089737 -45.23706055 48.91748047 C-49.87427326 44.80441384 -54.13288244 40.2771793 -58.4765625 35.859375 C-62.6420899 31.65090402 -66.88426667 27.63217318 -71.375 23.77294922 C-73.93076475 21.53734357 -76.30296671 19.16765181 -78.6875 16.75 C-79.5434375 15.88503906 -80.399375 15.02007812 -81.28125 14.12890625 C-82.22484375 13.16791016 -82.22484375 13.16791016 -83.1875 12.1875 C-82.1875 10.1875 -82.1875 10.1875 -80.25170898 9.42895508 C-79.40423096 9.19072021 -78.55675293 8.95248535 -77.68359375 8.70703125 C-76.72638428 8.43334717 -75.7691748 8.15966309 -74.78295898 7.87768555 C-73.74083252 7.58804932 -72.69870605 7.29841309 -71.625 7 C-69.43743323 6.37783888 -67.24993526 5.75543584 -65.0625 5.1328125 C-63.93070312 4.81344727 -62.79890625 4.49408203 -61.6328125 4.16503906 C-56.1206441 2.60107065 -50.62347798 0.9863054 -45.125 -0.625 C-42.28477568 -1.45479329 -39.44437678 -2.28374576 -36.60180664 -3.10546875 C-34.53753387 -3.70999236 -32.48251711 -4.34597178 -30.4296875 -4.98828125 C-19.21664392 -7.83882606 -9.78075809 -5.56160754 0 0 Z " fill="#8362F9" transform="translate(413.1875,25.8125)"/>
<path d="M0 0 C2.296875 2.0390625 2.296875 2.0390625 4.75 4.625 C7.66378657 7.67977624 10.59505993 10.5519459 13.796875 13.3046875 C19.02330936 17.82401603 23.80619161 22.75712406 28.64453125 27.68359375 C31.99302523 31.0688171 35.35660669 34.36445258 38.96875 37.46875 C44.37420611 42.11946199 49.293088 47.24689496 54.2890625 52.328125 C58.50169362 56.5841853 62.77618307 60.6491713 67.37109375 64.4921875 C69 66 69 66 71 69 C59.20833095 72.87846464 47.35341395 76.33973515 35.33837891 79.46313477 C29.15781366 81.08523346 23.12107133 82.93582403 17.07348633 84.99609375 C11.62925932 86.77436537 6.09741617 88.22152971 0.5625 89.6875 C-0.58154297 89.99494141 -1.72558594 90.30238281 -2.90429688 90.61914062 C-7.58734977 91.86996188 -12.23625247 93.09419789 -17 94 C-19.47046466 87.69322465 -21.44890734 81.32216564 -23.3125 74.8125 C-23.92435191 72.67965099 -24.53633364 70.54683922 -25.1484375 68.4140625 C-25.45491211 67.34446289 -25.76138672 66.27486328 -26.07714844 65.17285156 C-26.95464527 62.15593388 -27.86514716 59.15141814 -28.7890625 56.1484375 C-34.21191837 38.33563368 -34.21191837 38.33563368 -33 30 C-32.91492187 29.31421875 -32.82984375 28.6284375 -32.7421875 27.921875 C-30.87278122 17.81912617 -24.07341361 9.91503907 -16 4 C-5.59831267 -2.32906901 -5.59831267 -2.32906901 0 0 Z " fill="#7F69FB" transform="translate(83,110)"/>
<path d="M0 0 C28.71 0 57.42 0 87 0 C85.57181199 4.28456404 84.48701477 7.1910008 82.26953125 10.921875 C81.44727051 12.31684204 81.44727051 12.31684204 80.60839844 13.73999023 C80.01575195 14.73329346 79.42310547 15.72659668 78.8125 16.75 C77.54226885 18.90193077 76.27276288 21.05428973 75.00390625 23.20703125 C74.34535645 24.32158691 73.68680664 25.43614258 73.00830078 26.58447266 C69.12555758 33.18787374 65.31962513 39.83568699 61.50317383 46.47753906 C60.33005866 48.51553203 59.13278785 50.53978286 57.91357422 52.55053711 C56.42863078 55.22733805 55.28161561 57.70809673 54.15283203 60.52954102 C52.10329699 65.26389519 50.08711889 69.70250433 46 73 C38.52628758 75.71359246 30.13213955 74.58211312 22.375 74.0625 C14.99125 73.711875 7.6075 73.36125 0 73 C0 48.91 0 24.82 0 0 Z " fill="#885DF9" transform="translate(69,227)"/>
<path d="M0 0 C0.79719955 0.00222061 1.59439911 0.00444122 2.41575623 0.00672913 C3.32925842 0.00684998 4.24276062 0.00697083 5.1839447 0.00709534 C6.15045959 0.0122113 7.11697449 0.01732727 8.11277771 0.02259827 C9.4381958 0.02410889 9.4381958 0.02410889 10.79039001 0.02565002 C14.10489695 0.03089921 17.41938545 0.04486035 20.73387146 0.05775452 C28.13824646 0.07837952 35.54262146 0.09900452 43.17137146 0.12025452 C43.17137146 24.21025452 43.17137146 48.30025452 43.17137146 73.12025452 C14.46137146 73.12025452 -14.24862854 73.12025452 -43.82862854 73.12025452 C-39.87419841 65.21139427 -35.88491515 57.57430812 -31.39112854 49.99525452 C-30.16260669 47.9070994 -28.93476728 45.81854267 -27.70753479 43.72962952 C-27.07476624 42.65390686 -26.44199768 41.5781842 -25.79005432 40.46986389 C-21.81318218 33.67839193 -17.8995925 26.85023547 -13.97926331 20.02601624 C-2.55110595 0.16776617 -2.55110595 0.16776617 0 0 Z " fill="#9947F5" transform="translate(416.82862854003906,226.87974548339844)"/>
<path d="M0 0 C1.29410718 1.18263997 2.54196483 2.41706632 3.75 3.6875 C6.29904571 6.35971388 8.93680301 8.83239687 11.734375 11.23828125 C16.97697601 15.78507491 21.78495215 20.73549772 26.64453125 25.68359375 C30.00328124 29.07918561 33.37852424 32.38417769 37 35.5 C42.16560744 39.94435252 46.87292293 44.82507088 51.64453125 49.68359375 C55.08959591 53.16644705 58.55771125 56.53305574 62.28125 59.71875 C65.23187417 62.24827419 67.70321283 64.84191764 70 68 C59.60711046 71.6657091 49.14249762 74.88331097 38.5 77.75 C37.41541504 78.04334229 36.33083008 78.33668457 35.21337891 78.63891602 C33.12464197 79.19387198 31.02983837 79.72657065 28.92919922 80.23461914 C26.01853928 80.93560823 26.01853928 80.93560823 23.38720703 82.01342773 C20.63716363 82.94974557 18.89179836 83.36900848 16 83 C11.65310562 80.11695167 8.32999031 76.41632702 4.875 72.5625 C3.93134942 71.5499639 2.98475143 70.54016627 2.03515625 69.53320312 C0.19052357 67.57637246 -1.64324351 65.61135786 -3.47167969 63.63916016 C-6.20048798 60.79072277 -9.06162908 58.22789282 -12.06982422 55.68334961 C-16.5006983 51.8190849 -20.52739982 47.50853097 -24.64453125 43.31640625 C-28.6244119 39.2928706 -32.6931655 35.48076688 -36.98242188 31.79052734 C-40.64431817 28.54072732 -44.0600382 25.04386875 -47.5 21.5625 C-48.22703125 20.83095703 -48.9540625 20.09941406 -49.703125 19.34570312 C-51.47109499 17.56610176 -53.23666378 15.78419082 -55 14 C-52.59295796 11.59295796 -51.06339363 11.32151258 -47.78515625 10.484375 C-46.71475098 10.2054541 -45.6443457 9.9265332 -44.54150391 9.63916016 C-42.81939697 9.19902588 -42.81939697 9.19902588 -41.0625 8.75 C-31.15270362 6.15787004 -21.37152829 3.33496102 -11.6328125 0.1640625 C-3.6660729 -2.38872073 -3.6660729 -2.38872073 0 0 Z " fill="#7F67FA" transform="translate(159,89)"/>
<path d="M0 0 C1.90600586 1.24658203 1.90600586 1.24658203 3.71484375 3.0078125 C4.39426025 3.6582251 5.07367676 4.3086377 5.77368164 4.97875977 C6.4877417 5.68701904 7.20180176 6.39527832 7.9375 7.125 C9.05596313 8.20575806 9.05596313 8.20575806 10.19702148 9.30834961 C15.59134476 14.54200801 20.92527174 19.84463948 26.18139648 25.21728516 C28.97122757 28.0543281 31.82197623 30.74532737 34.83984375 33.33984375 C40.28133325 38.04253415 45.25000711 43.2030789 50.2890625 48.328125 C54.46629825 52.54842504 58.7082122 56.60479336 63.22460938 60.46166992 C65.97789458 62.84732037 68.51770242 65.3315301 71 68 C71 68.66 71 69.32 71 70 C69.7625 70.35191406 68.525 70.70382813 67.25 71.06640625 C56.21081478 74.21090797 45.18325947 77.39156187 34.17382812 80.63891602 C32.30289883 81.1879862 30.42913893 81.72753394 28.55224609 82.25585938 C26.92108522 82.7314456 25.30143817 83.249921 23.70166016 83.82226562 C21.61328125 84.515625 21.61328125 84.515625 18 85 C15.57421875 82.83251953 15.57421875 82.83251953 13 80 C11.82763794 78.81978271 11.82763794 78.81978271 10.6315918 77.61572266 C9.82890869 76.8066748 9.02622559 75.99762695 8.19921875 75.1640625 C6.36205135 73.31763651 4.52480955 71.47128454 2.6875 69.625 C1.77548828 68.70460938 0.86347656 67.78421875 -0.07617188 66.8359375 C-4.60902205 62.28684055 -9.18756759 57.89439067 -14.06323242 53.71630859 C-18.47118485 49.81010595 -22.51965646 45.51641538 -26.64453125 41.31640625 C-30.66464894 37.2521922 -34.77436223 33.3934528 -39.10742188 29.66552734 C-42.03335456 27.09061599 -44.7678273 24.33997658 -47.5 21.5625 C-48.03625 21.02173828 -48.5725 20.48097656 -49.125 19.92382812 C-50.41904036 18.61823383 -51.70988174 17.30947004 -53 16 C-50.80802749 13.51327605 -49.14660549 12.49753633 -45.95703125 11.640625 C-45.14169922 11.4152002 -44.32636719 11.18977539 -43.48632812 10.95751953 C-42.60396484 10.72403809 -41.72160156 10.49055664 -40.8125 10.25 C-38.92284706 9.73297551 -37.03353778 9.21469376 -35.14453125 8.6953125 C-34.1488916 8.42364258 -33.15325195 8.15197266 -32.12744141 7.87207031 C-28.88966561 6.96923385 -25.66900679 6.01962175 -22.44921875 5.0546875 C-21.37373779 4.73338867 -20.29825684 4.41208984 -19.19018555 4.08105469 C-17.09528974 3.45324326 -15.00165259 2.82121343 -12.90942383 2.18457031 C-11.94931396 1.89936523 -10.9892041 1.61416016 -10 1.3203125 C-9.154375 1.06523926 -8.30875 0.81016602 -7.4375 0.54736328 C-4.79395507 -0.0462693 -2.69768662 -0.30158781 0 0 Z " fill="#8264F9" transform="translate(308,44)"/>
<path d="M0 0 C1.83786456 1.45389755 3.34715369 3.03101225 4.8984375 4.78515625 C6.74696077 6.7333211 8.62908455 8.4373831 10.6640625 10.18359375 C16.16380058 14.941545 21.19372715 20.14583854 26.2890625 25.328125 C30.39511971 29.4765127 34.57810169 33.42299977 39.00390625 37.2265625 C43.42797108 41.15714065 47.49980444 45.463371 51.64453125 49.68359375 C55.71258979 53.79627451 59.8613669 57.72965881 64.25585938 61.49291992 C66.64732529 63.55934197 68.86635577 65.66632662 71 68 C71 68.66 71 69.32 71 70 C70.45923828 70.1451001 69.91847656 70.2902002 69.36132812 70.43969727 C66.7401759 71.14469494 64.11995069 71.8530497 61.5 72.5625 C60.03409424 72.95924927 60.03409424 72.95924927 58.53857422 73.36401367 C53.16740398 74.8284522 47.81342464 76.33666842 42.4765625 77.921875 C40.88424805 78.39451782 40.88424805 78.39451782 39.25976562 78.87670898 C37.21252572 79.48785155 35.1668659 80.10431947 33.12304688 80.72680664 C31.70475586 81.15014282 31.70475586 81.15014282 30.2578125 81.58203125 C29.4342627 81.83186768 28.61071289 82.0817041 27.76220703 82.33911133 C26.85067871 82.55720459 25.93915039 82.77529785 25 83 C24.05685944 83.23878372 24.05685944 83.23878372 23.09466553 83.48239136 C19.04101305 84.29330167 17.5874605 84.38946171 14.015625 82.02148438 C13.07042283 81.06814837 12.14940332 80.0904096 11.25 79.09375 C10.74758789 78.57623169 10.24517578 78.05871338 9.72753906 77.5255127 C8.12911304 75.87033709 6.56453437 74.18718614 5 72.5 C3.43358694 70.85333244 1.86072905 69.21301066 0.28735352 67.57299805 C-0.73569568 66.50543314 -1.75605709 65.43528587 -2.77368164 64.36254883 C-6.05280873 60.92008735 -9.45203933 57.74957881 -13.078125 54.68164062 C-17.72809394 50.6129178 -21.95957697 46.07524254 -26.2890625 41.671875 C-30.43521386 37.48297982 -34.656354 33.4816194 -39.125 29.63916016 C-42.0291913 27.10026167 -44.7714563 24.41256342 -47.5 21.6875 C-48.03625 21.16349609 -48.5725 20.63949219 -49.125 20.09960938 C-50.45717501 18.77253198 -51.73407049 17.39041258 -53 16 C-53 15.34 -53 14.68 -53 14 C-39.0107615 9.69355036 -24.99532014 5.51125853 -10.90332031 1.55322266 C-3.63538291 -0.55928968 -3.63538291 -0.55928968 0 0 Z " fill="#8166FA" transform="translate(233,66)"/>
<path d="M0 0 C2.60853319 0.07528818 5.21727383 0.14372116 7.82617188 0.20507812 C14.20115724 0.36992503 20.5683687 0.62041197 26.9375 0.9375 C25.46778926 4.70466237 23.7872922 8.12803264 21.76953125 11.63671875 C21.13080078 12.75095215 20.49207031 13.86518555 19.83398438 15.01318359 C19.13939944 16.21716654 18.44473604 17.42110424 17.75 18.625 C17.03293636 19.8730564 16.31614337 21.12126835 15.59960938 22.36962891 C13.38338794 26.22817421 11.16075685 30.08300558 8.9375 33.9375 C8.24002255 35.14759542 7.54259303 36.35771846 6.84521484 37.56787109 C4.28672756 42.00701555 1.72757468 46.44576974 -0.83666992 50.8815918 C-5.27095793 58.55267796 -9.66627671 66.24410924 -14.0625 73.9375 C-32.5425 73.9375 -51.0225 73.9375 -70.0625 73.9375 C-61.53683056 58.30710603 -52.77938382 42.81860622 -43.8125 27.4375 C-43.27109375 26.50848877 -42.7296875 25.57947754 -42.171875 24.62231445 C-41.07588339 22.74829395 -39.95054509 20.89117105 -38.79858398 19.05102539 C-37.43030526 16.59712882 -36.5309396 14.53204117 -35.62524414 11.91577148 C-29.42243905 -3.99813656 -14.73355457 -0.73607591 0 0 Z " fill="#9052F7" transform="translate(286.0625,226.0625)"/>
<path d="M0 0 C1.17209015 0.04645157 2.3441803 0.09290314 3.55178833 0.14076233 C5.37022751 0.15986412 5.37022751 0.15986412 7.22540283 0.17935181 C11.08885634 0.22964398 14.94757298 0.34254767 18.80960083 0.45716858 C21.43192872 0.50231974 24.0543304 0.54338318 26.67678833 0.58021545 C33.09766911 0.67932311 39.51579664 0.82982228 45.93460083 1.01966858 C44.98216504 2.76619004 44.02968186 4.51268567 43.07717896 6.25917053 C42.28156555 7.71804436 42.28156555 7.71804436 41.46987915 9.20639038 C34.33441317 22.28157721 26.9584685 35.19966011 19.42678833 48.05091858 C15.65886139 54.48040055 11.93188346 60.93327351 8.22195435 67.39637756 C5.04349772 72.91077169 5.04349772 72.91077169 3.93460083 74.01966858 C2.21594674 74.11326048 0.49344339 74.13711469 -1.22775269 74.13319397 C-2.32881851 74.13311844 -3.42988434 74.13304291 -4.5643158 74.13296509 C-5.76221237 74.1278038 -6.96010895 74.12264252 -8.19430542 74.11732483 C-9.41367294 74.11590988 -10.63304047 74.11449493 -11.88935852 74.11303711 C-15.80222987 74.10741825 -19.71504498 74.09486254 -23.62789917 74.08216858 C-26.27308064 74.07715601 -28.918263 74.07259268 -31.56344604 74.0684967 C-38.06411643 74.05744269 -44.56475378 74.04068622 -51.06539917 74.01966858 C-46.86041237 65.41110864 -42.46526766 57.00950891 -37.56539917 48.76966858 C-36.34588397 46.70110909 -35.12716359 44.63208086 -33.90914917 42.56263733 C-33.28266479 41.49964417 -32.65618042 40.436651 -32.01071167 39.34144592 C-29.99969387 35.9074715 -28.01220849 32.46096271 -26.03414917 29.00794983 C-25.7012085 28.42739838 -25.36826782 27.84684692 -25.02523804 27.248703 C-23.41873019 24.44671936 -21.81515548 21.64311907 -20.21578979 18.83705139 C-19.62991089 17.81579163 -19.04403198 16.79453186 -18.44039917 15.74232483 C-17.67856323 14.40826599 -17.67856323 14.40826599 -16.90133667 13.04725647 C-15.99254761 11.54860046 -15.99254761 11.54860046 -15.06539917 10.01966858 C-14.70163177 9.25134201 -14.33786438 8.48301544 -13.96307373 7.69140625 C-10.42346123 1.05623876 -7.39297854 -0.00456586 0 0 Z " fill="#8C57F8" transform="translate(189.06539916992188,225.98033142089844)"/>
<path d="M0 0 C18.15 0 36.3 0 55 0 C53.57181199 4.28456404 52.48701477 7.1910008 50.26953125 10.921875 C49.44727051 12.31684204 49.44727051 12.31684204 48.60839844 13.73999023 C48.01575195 14.73329346 47.42310547 15.72659668 46.8125 16.75 C45.54226885 18.90193077 44.27276288 21.05428973 43.00390625 23.20703125 C42.34535645 24.32158691 41.68680664 25.43614258 41.00830078 26.58447266 C37.12555758 33.18787374 33.31962513 39.83568699 29.50317383 46.47753906 C28.32856859 48.51812066 27.12519773 50.54237027 25.89599609 52.55053711 C24.4061662 55.26104529 23.35627142 57.65396111 22.31103516 60.52954102 C20.33508175 65.43771844 18.36251688 69.80772546 14 73 C5.02556375 75.82409494 -4.8764624 74.58790557 -14.125 74.0625 C-16.72892076 73.97716006 -19.33310904 73.89960489 -21.9375 73.83007812 C-28.29753131 73.64336801 -34.64752448 73.35962024 -41 73 C-39.83139604 70.04221486 -38.65369481 67.19922484 -37.109375 64.41796875 C-36.73723877 63.74636719 -36.36510254 63.07476562 -35.98168945 62.3828125 C-35.57523193 61.65835938 -35.16877441 60.93390625 -34.75 60.1875 C-34.09680786 59.01767578 -34.09680786 59.01767578 -33.43041992 57.82421875 C-28.64667046 49.3005378 -23.70169963 40.87120409 -18.76171875 32.4375 C-12.45162163 21.65754126 -6.2352118 10.82338652 0 0 Z " fill="#944DF6" transform="translate(336,227)"/>
<path d="M0 0 C15.94433903 7.97216951 15.94433903 7.97216951 21.75 11.5 C23.15940029 12.34241189 24.56961859 13.18345608 25.98046875 14.0234375 C26.75438965 14.48459961 27.52831055 14.94576172 28.32568359 15.42089844 C33.87880335 18.69984481 39.47386918 21.90708483 45.0625 25.125 C46.24773758 25.80791455 47.43295929 26.49085665 48.61816406 27.17382812 C51.41174654 28.78318356 54.20568217 30.39192181 57 32 C55.74327861 35.77016416 54.70437669 36.00711403 51.27734375 37.86328125 C50.27477539 38.41395264 49.27220703 38.96462402 48.23925781 39.53198242 C47.14967773 40.11955322 46.06009766 40.70712402 44.9375 41.3125 C42.65909743 42.5631772 40.38178231 43.81583719 38.10546875 45.0703125 C37.52100983 45.39136459 36.9365509 45.71241669 36.3343811 46.04319763 C30.07908079 49.48727084 23.91043182 53.07687 17.75 56.6875 C16.74573975 57.2750708 15.74147949 57.8626416 14.70678711 58.46801758 C9.48296658 61.52204337 9.48296658 61.52204337 4.32128906 64.67895508 C2 66 2 66 0 66 C0 44.22 0 22.44 0 0 Z " fill="#9C40F2" transform="translate(246,372)"/>
<path d="M0 0 C3.64008476 0.31575203 6.4218423 0.65356397 9.63671875 2.45703125 C11.92279544 6.53221144 11.79388632 10.46668696 11.07421875 15.01953125 C9.41136785 17.98374372 8.1914682 18.68602395 4.98046875 19.64453125 C2.54473638 20.09920129 0.53874368 20.29629608 -1.92578125 20.01953125 C-4.92578125 17.64453125 -4.92578125 17.64453125 -6.92578125 15.01953125 C-7.25578125 14.68953125 -7.58578125 14.35953125 -7.92578125 14.01953125 C-8.21900991 11.08724462 -8.42582372 8.87461242 -7.92578125 6.01953125 C-5.48828125 3.08203125 -5.48828125 3.08203125 -2.92578125 1.01953125 C-1.92578125 0.01953125 -1.92578125 0.01953125 0 0 Z " fill="#050107" transform="translate(262.92578125,491.98046875)"/>
</svg>
